<svg width="800" height="800" viewBox="0 0 800 800" fill="none" xmlns="http://www.w3.org/2000/svg">
<path d="M149.178 390.918L268.902 435.601L315.243 584.634C318.209 594.175 329.88 597.703 337.625 591.369L404.363 536.967C411.357 531.263 421.323 530.983 428.63 536.288L549.001 623.679C557.287 629.699 569.029 625.162 571.106 615.148L659.284 191.006C661.552 180.066 650.807 170.942 640.391 174.971L149.039 364.522C136.912 369.195 137.016 386.363 149.178 390.918ZM307.774 411.817L541.76 267.707C545.963 265.125 550.291 270.811 546.677 274.161L353.574 453.66C346.784 459.976 342.407 468.434 341.166 477.614L334.591 526.361C333.715 532.868 324.577 533.511 322.778 527.214L297.48 438.321C294.585 428.184 298.806 417.351 307.774 411.817Z" fill="black"/>
<rect x="10" y="10" width="780" height="780" stroke="black" stroke-width="20"/>
</svg>
