<svg width="30" height="30" viewBox="0 0 24 24" fill="none" xmlns="http://www.w3.org/2000/svg">
<rect x="0.5" y="0.5" width="23" height="23" stroke="white"/>
<path d="M19.6745 7.72945C19.5835 7.39769 19.4055 7.09514 19.1584 6.85191C18.9112 6.60867 18.6035 6.43324 18.2659 6.34307C17.014 6.0055 12.0055 6.00001 12.0055 6.00001C12.0055 6.00001 6.99788 5.99451 5.74517 6.31716C5.40775 6.41148 5.10068 6.5894 4.85345 6.83382C4.60622 7.07825 4.42713 7.38099 4.33337 7.71296C4.0032 8.94234 4 11.4921 4 11.4921C4 11.4921 3.9968 14.0545 4.32457 15.2713C4.50844 15.9441 5.04806 16.4756 5.73397 16.6569C6.99868 16.9945 11.9935 17 11.9935 17C11.9935 17 17.002 17.0055 18.2539 16.6836C18.5917 16.5936 18.8997 16.4186 19.1474 16.1758C19.3952 15.9331 19.5741 15.6311 19.6665 15.2996C19.9975 14.071 19.9999 11.522 19.9999 11.522C19.9999 11.522 20.0159 8.95882 19.6745 7.72945ZM10.4035 13.8543L10.4075 9.14409L14.5701 11.5031L10.4035 13.8543Z" fill="white"/>
</svg>
